<?xml version="1.0" standalone="no"?>
<!DOCTYPE svg PUBLIC "-//W3C//DTD SVG 20010904//EN"
 "http://www.w3.org/TR/2001/REC-SVG-20010904/DTD/svg10.dtd">
<svg version="1.0" xmlns="http://www.w3.org/2000/svg"
 width="40.000000pt" height="44.000000pt" viewBox="0 0 40.000000 44.000000"
 preserveAspectRatio="xMidYMid meet">

<g transform="translate(0.000000,44.000000) scale(0.100000,-0.100000)"
fill="#000000" stroke="none">
<path d="M157 374 c-4 -4 -7 -23 -7 -43 l0 -36 50 0 51 0 -3 40 c-3 39 -4 40
-43 43 -23 2 -44 0 -48 -4z"/>
<path d="M174 265 c-7 -17 -35 -20 -51 -4 -6 6 -26 9 -44 7 -33 -3 -34 -4 -34
-48 l0 -45 41 -3 c40 -3 41 -2 37 22 -7 33 10 34 25 1 15 -31 60 -44 77 -21
14 18 36 21 52 5 6 -6 26 -9 44 -7 33 3 34 4 34 48 l0 45 -41 3 c-40 3 -41 2
-37 -22 3 -16 1 -26 -6 -26 -6 0 -11 5 -11 10 0 17 -39 50 -60 50 -11 0 -23
-7 -26 -15z m43 -43 c3 -45 -10 -61 -32 -42 -17 14 -10 34 8 23 7 -3 4 2 -5
13 -12 14 -14 24 -6 37 16 29 33 14 35 -31z"/>
<path d="M152 105 l3 -40 45 0 45 0 3 40 3 40 -51 0 -51 0 3 -40z"/>
</g>
</svg>
